<?xml version="1.0" encoding="UTF-8" standalone="no"?>
<!DOCTYPE svg PUBLIC "-//W3C//DTD SVG 1.1//EN" "http://www.w3.org/Graphics/SVG/1.1/DTD/svg11.dtd">
<svg xmlns="http://www.w3.org/2000/svg" xmlns:xl="http://www.w3.org/1999/xlink" version="1.1" viewBox="0 0 504 360" width="42pc" height="30pc" xmlns:dc="http://purl.org/dc/elements/1.1/"><metadata> Produced by OmniGraffle 6.5.3 <dc:date>2016-06-02 08:15:31 +0000</dc:date></metadata><defs/><g stroke="none" stroke-opacity="1" stroke-dasharray="none" fill="none" fill-opacity="1"><title>Arbeitsfläche 1</title><rect fill="white" width="845" height="818"/><g><title>Ebene 1</title><rect x="72" y="72" width="72" height="72" fill="white"/><rect x="72" y="72" width="72" height="72" stroke="#666" stroke-linecap="round" stroke-linejoin="round" stroke-width="1"/><rect x="72" y="144" width="72" height="72" fill="white"/><rect x="72" y="144" width="72" height="72" stroke="#666" stroke-linecap="round" stroke-linejoin="round" stroke-width="1"/><rect x="72" y="216" width="72" height="72" fill="white"/><rect x="72" y="216" width="72" height="72" stroke="#666" stroke-linecap="round" stroke-linejoin="round" stroke-width="1"/><rect x="288" y="144" width="72" height="72" fill="white"/><rect x="288" y="144" width="72" height="72" stroke="#666" stroke-linecap="round" stroke-linejoin="round" stroke-width="1"/><rect x="360" y="216" width="72" height="72" fill="white"/><rect x="360" y="216" width="72" height="72" stroke="#666" stroke-linecap="round" stroke-linejoin="round" stroke-width="1"/><rect x="288" y="216" width="72" height="72" fill="white"/><rect x="288" y="216" width="72" height="72" stroke="#666" stroke-linecap="round" stroke-linejoin="round" stroke-width="1"/><rect x="216" y="216" width="72" height="72" fill="white"/><rect x="216" y="216" width="72" height="72" stroke="#666" stroke-linecap="round" stroke-linejoin="round" stroke-width="1"/><rect x="144" y="144" width="72" height="72" fill="white"/><rect x="144" y="144" width="72" height="72" stroke="#666" stroke-linecap="round" stroke-linejoin="round" stroke-width="1"/><rect x="144" y="216" width="72" height="72" fill="white"/><rect x="144" y="216" width="72" height="72" stroke="#666" stroke-linecap="round" stroke-linejoin="round" stroke-width="1"/><rect x="360" y="144" width="72" height="72" fill="white"/><rect x="360" y="144" width="72" height="72" stroke="#666" stroke-linecap="round" stroke-linejoin="round" stroke-width="1"/><rect x="360" y="72" width="72" height="72" fill="white"/><rect x="360" y="72" width="72" height="72" stroke="#666" stroke-linecap="round" stroke-linejoin="round" stroke-width="1"/><rect x="216" y="144" width="72" height="72" fill="white"/><rect x="216" y="144" width="72" height="72" stroke="#666" stroke-linecap="round" stroke-linejoin="round" stroke-width="1"/><rect x="144" y="72" width="72" height="72" fill="white"/><rect x="144" y="72" width="72" height="72" stroke="#666" stroke-linecap="round" stroke-linejoin="round" stroke-width="1"/><rect x="216" y="72" width="72" height="72" fill="white"/><rect x="216" y="72" width="72" height="72" stroke="#666" stroke-linecap="round" stroke-linejoin="round" stroke-width="1"/><rect x="288" y="72" width="72" height="72" fill="white"/><rect x="288" y="72" width="72" height="72" stroke="#666" stroke-linecap="round" stroke-linejoin="round" stroke-width="1"/><rect x="72" y="72" width="360" height="216" stroke="black" stroke-linecap="round" stroke-linejoin="round" stroke-width="12"/><rect x="216" y="144" width="216" height="72" fill="#15493f" fill-opacity=".5"/><rect x="216" y="144" width="216" height="72" stroke="black" stroke-linecap="round" stroke-linejoin="round" stroke-width="12"/><circle cx="252" cy="252" r="27.000043" fill="#f26077"/><circle cx="252" cy="252" r="27.000043" stroke="#b1001c" stroke-linecap="round" stroke-linejoin="round" stroke-width="4"/><circle cx="396" cy="108" r="27.000043" fill="#3a8eed"/><circle cx="396" cy="108" r="27.000043" stroke="#003776" stroke-linecap="round" stroke-linejoin="round" stroke-width="4"/><path d="M 366.99999 108 L 252 108 L 252 222.99999" stroke="#b34400" stroke-linecap="round" stroke-linejoin="round" stroke-width="3"/></g></g></svg>
